<?xml version="1.0" encoding="UTF-8" standalone="no"?><!-- Created with Inkscape (http://www.inkscape.org/) -->

<svg width="24.0px" height="24.0px" viewBox="0 0 24.0 24.0" version="1.1" id="SVGRoot"
	sodipodi:docname="icon.svg" xml:space="preserve"
	inkscape:version="1.2.2 (b0a8486541, 2022-12-01)" inkscape:export-filename="icon.png"
	inkscape:export-xdpi="960" inkscape:export-ydpi="960"
	xmlns:inkscape="http://www.inkscape.org/namespaces/inkscape"
	xmlns:sodipodi="http://sodipodi.sourceforge.net/DTD/sodipodi-0.dtd"
	xmlns:xlink="http://www.w3.org/1999/xlink" xmlns="http://www.w3.org/2000/svg"><sodipodi:namedview
     id="namedview1070"
     pagecolor="#ffffff"
     bordercolor="#000000"
     borderopacity="0.25"
     inkscape:showpageshadow="2"
     inkscape:pageopacity="0.0"
     inkscape:pagecheckerboard="0"
     inkscape:deskcolor="#d1d1d1"
     inkscape:document-units="px"
     showgrid="true"
     inkscape:zoom="26.296701"
     inkscape:cx="6.1794823"
     inkscape:cy="11.921647"
     inkscape:window-width="1920"
     inkscape:window-height="1052"
     inkscape:window-x="0"
     inkscape:window-y="0"
     inkscape:window-maximized="1"
     inkscape:current-layer="layer1"><inkscape:grid
       type="xygrid"
       id="grid1556" /></sodipodi:namedview>
	<defs id="defs1065" />
	<g inkscape:label="Layer 1" inkscape:groupmode="layer" id="layer1"><g
       id="g9303"
       inkscape:label="calendar"><path
         id="rect3117"
         style="fill:#ececec"
         d="M 22 6.0019531 L 2 6 L 2 20 C 2 20.553999 2.4460006 21 3 21 L 21 21 C 21.553999 21 22 20.553999 22 20 L 22 6.0019531 z " /><path
		id="path3387" style="fill:#644fad;fill-opacity:1"
		d="M 3 3 C 2.4460006 3 2 3.4460006 2 4 L 2 6 L 22 6.0019531 L 22 4 C 22 3.4460006 21.553999 3 21 3 L 3 3 z " /><rect
		style="display:inline;fill:#808080;fill-opacity:1" id="rect4894" width="2" height="2"
		x="3.00002" y="7.1666799" ry="0.5" inkscape:tile-cx="4.0065067" inkscape:tile-cy="8.2436657"
		inkscape:tile-w="2" inkscape:tile-h="2" inkscape:tile-x0="3.0065067"
		inkscape:tile-y0="7.2436657" /><use x="0" y="0" inkscape:tiled-clone-of="#rect4894"
		xlink:href="#rect4894" id="use8443" /><use x="0" y="0" inkscape:tiled-clone-of="#rect4894"
		xlink:href="#rect4894" transform="translate(0,2.66666)" id="use8445" /><use x="0" y="0"
		inkscape:tiled-clone-of="#rect4894" xlink:href="#rect4894" transform="translate(0,5.33332)"
		id="use8447" /><use x="0" y="0" inkscape:tiled-clone-of="#rect4894" xlink:href="#rect4894"
		transform="translate(0,7.99998)" id="use8449" /><use x="0" y="0"
		inkscape:tiled-clone-of="#rect4894" xlink:href="#rect4894" transform="translate(0,10.66664)"
		id="use8451" /><use x="0" y="0" inkscape:tiled-clone-of="#rect4894" xlink:href="#rect4894"
		transform="translate(2.66666)" id="use8453" /><use x="0" y="0"
		inkscape:tiled-clone-of="#rect4894" xlink:href="#rect4894"
		transform="translate(2.66666,2.66666)" id="use8455" /><use x="0" y="0"
		inkscape:tiled-clone-of="#rect4894" xlink:href="#rect4894"
		transform="translate(2.66666,5.33332)" id="use8457" /><use x="0" y="0"
		inkscape:tiled-clone-of="#rect4894" xlink:href="#rect4894"
		transform="translate(2.66666,7.99998)" id="use8459" /><use x="0" y="0"
		inkscape:tiled-clone-of="#rect4894" xlink:href="#rect4894"
		transform="translate(2.66666,10.66664)" id="use8461" /><use x="0" y="0"
		inkscape:tiled-clone-of="#rect4894" xlink:href="#rect4894" transform="translate(5.33332)"
		id="use8463" /><use x="0" y="0" inkscape:tiled-clone-of="#rect4894" xlink:href="#rect4894"
		transform="translate(5.33332,2.66666)" id="use8465" /><use x="0" y="0"
		inkscape:tiled-clone-of="#rect4894" xlink:href="#rect4894"
		transform="translate(5.33332,5.33332)" id="use8467" /><use x="0" y="0"
		inkscape:tiled-clone-of="#rect4894" xlink:href="#rect4894"
		transform="translate(5.33332,7.99998)" id="use8469" /><use x="0" y="0"
		inkscape:tiled-clone-of="#rect4894" xlink:href="#rect4894"
		transform="translate(5.33332,10.66664)" id="use8471" /><use x="0" y="0"
		inkscape:tiled-clone-of="#rect4894" xlink:href="#rect4894" transform="translate(7.99998)"
		id="use8473" /><use x="0" y="0" inkscape:tiled-clone-of="#rect4894" xlink:href="#rect4894"
		transform="translate(7.99998,2.66666)" id="use8475" /><use x="0" y="0"
		inkscape:tiled-clone-of="#rect4894" xlink:href="#rect4894"
		transform="translate(7.99998,5.33332)" id="use8477" /><use x="0" y="0"
		inkscape:tiled-clone-of="#rect4894" xlink:href="#rect4894"
		transform="translate(7.99998,7.99998)" id="use8479" /><use x="0" y="0"
		inkscape:tiled-clone-of="#rect4894" xlink:href="#rect4894" transform="translate(10.66664)"
		id="use8483" /><use x="0" y="0" inkscape:tiled-clone-of="#rect4894" xlink:href="#rect4894"
		transform="translate(10.66664,2.66666)" id="use8485" /><use x="0" y="0"
		inkscape:tiled-clone-of="#rect4894" xlink:href="#rect4894"
		transform="translate(10.66664,5.33332)" id="use8487" /><use x="0" y="0"
		inkscape:tiled-clone-of="#rect4894" xlink:href="#rect4894"
		transform="translate(10.66664,7.99998)" id="use8489" /><use x="0" y="0"
		inkscape:tiled-clone-of="#rect4894" xlink:href="#rect4894" transform="translate(13.3333)"
		id="use8493" /><use x="0" y="0" inkscape:tiled-clone-of="#rect4894" xlink:href="#rect4894"
		transform="translate(13.3333,2.66666)" id="use8495" /><use x="0" y="0"
		inkscape:tiled-clone-of="#rect4894" xlink:href="#rect4894"
		transform="translate(13.3333,5.33332)" id="use8497" /><use x="0" y="0"
		inkscape:tiled-clone-of="#rect4894" xlink:href="#rect4894"
		transform="translate(13.3333,7.99998)" id="use8499" /><use x="0" y="0"
		inkscape:tiled-clone-of="#rect4894" xlink:href="#rect4894" transform="translate(15.99996)"
		id="use8503" /><use x="0" y="0" inkscape:tiled-clone-of="#rect4894" xlink:href="#rect4894"
		transform="translate(15.99996,2.66666)" id="use8505" /><use x="0" y="0"
		inkscape:tiled-clone-of="#rect4894" xlink:href="#rect4894"
		transform="translate(15.99996,5.33332)" id="use8507" /><use x="0" y="0"
		inkscape:tiled-clone-of="#rect4894" xlink:href="#rect4894"
		transform="translate(15.99996,7.99998)" id="use8509" /><g id="use9214"
		inkscape:tile-x0="3.6500001" inkscape:tile-y0="1.6" transform="translate(-0.05400012)"><rect
           style="fill:#000000;fill-opacity:0.501095;stroke-width:1.02762"
           id="rect9224"
           width="2.2"
           height="1.2"
           x="3.6500001"
           y="3.9000001"
           ry="0.23999998" />
		<rect style="fill:#000000;fill-opacity:1;stroke-width:0.921658" id="rect9226"
			width="0.80000001" height="3" x="4.3500004" y="1.6" ry="0.55456275" /></g><g
		id="use9216" inkscape:tile-x0="3.6500001" inkscape:tile-y0="1.6"
		transform="translate(3.5979999)"><rect
           style="fill:#000000;fill-opacity:0.501095;stroke-width:1.02762"
           id="rect9230"
           width="2.2"
           height="1.2"
           x="3.6500001"
           y="3.9000001"
           ry="0.23999998" />
		<rect style="fill:#000000;fill-opacity:1;stroke-width:0.921658" id="rect9232"
			width="0.80000001" height="3" x="4.3500004" y="1.6" ry="0.55456275" /></g><g
		id="use9218" inkscape:tile-x0="3.6500001" inkscape:tile-y0="1.6"
		transform="translate(7.2499999)"><rect
           style="fill:#000000;fill-opacity:0.501095;stroke-width:1.02762"
           id="rect9236"
           width="2.2"
           height="1.2"
           x="3.6500001"
           y="3.9000001"
           ry="0.23999998" />
		<rect style="fill:#000000;fill-opacity:1;stroke-width:0.921658" id="rect9238"
			width="0.80000001" height="3" x="4.3500004" y="1.6" ry="0.55456275" /></g><g
		id="use9220" inkscape:tile-x0="3.6500001" inkscape:tile-y0="1.6"
		transform="translate(10.902)"><rect
           style="fill:#000000;fill-opacity:0.501095;stroke-width:1.02762"
           id="rect9242"
           width="2.2"
           height="1.2"
           x="3.6500001"
           y="3.9000001"
           ry="0.23999998" />
		<rect style="fill:#000000;fill-opacity:1;stroke-width:0.921658" id="rect9244"
			width="0.80000001" height="3" x="4.3500004" y="1.6" ry="0.55456275" /></g><g
		id="use9222" inkscape:tile-x0="3.6500001" inkscape:tile-y0="1.6"
		transform="translate(14.554)"><rect
           style="fill:#000000;fill-opacity:0.501095;stroke-width:1.02762"
           id="rect9248"
           width="2.2"
           height="1.2"
           x="3.6500001"
           y="3.9000001"
           ry="0.23999998" />
		<rect style="fill:#000000;fill-opacity:1;stroke-width:0.921658" id="rect9250"
			width="0.80000001" height="3" x="4.3500004" y="1.6" ry="0.55456275" /></g></g>
		<g id="g9348" transform="matrix(-0.01561885,0,0,-0.01562496,23.000005,22.00156)"
			style="fill:#644fad;fill-opacity:1;stroke:#ffffff;stroke-opacity:1;stroke-width:6.40126809;stroke-dasharray:none">
	<path
		style="fill:#644fad;fill-opacity:1;stroke:#ffffff;stroke-opacity:1;stroke-width:6.40126809;stroke-dasharray:none"
		d="m 10.222,276.087 103.23,74.549 c 11.67,8.439 27.992,0.097 27.992,-14.31 v -53.742 h 97.103 v 79.448 c 0,58.403 47.519,105.931 105.931,105.931 h 35.31 c 10.478,25.865 32.159,44.138 61.793,44.138 39,0 70.621,-31.62 70.621,-70.621 0,-39.009 -31.62,-70.621 -70.621,-70.621 -29.634,0 -51.315,18.264 -61.793,44.138 h -35.31 c -29.211,0 -52.966,-23.764 -52.966,-52.966 v -79.448 h 88.276 c 10.478,25.865 32.159,44.138 61.793,44.138 39,0 70.621,-31.62 70.621,-70.621 0,-39.009 -31.62,-70.621 -70.621,-70.621 -29.634,0 -51.315,18.264 -61.793,44.138 H 291.512 V 150.17 c 0,-29.21 23.755,-52.966 52.966,-52.966 h 35.31 c 10.478,25.865 32.159,44.138 61.793,44.138 39,0 70.621,-31.62 70.621,-70.621 0,-39.009 -31.62,-70.621 -70.621,-70.621 -29.634,0 -51.315,18.264 -61.793,44.138 h -35.31 c -58.412,0 -105.931,47.519 -105.931,105.931 v 70.621 h -97.103 v -44.924 c 0,-14.398 -16.322,-22.74 -27.992,-14.31 l -103.23,74.549 c -13.629,9.845 -13.629,30.139 0,39.982"
		id="path9346" />
</g></g></svg>
